<?xml version="1.0" encoding="utf-8"?>
<!-- Generator: Adobe Illustrator 22.1.0, SVG Export Plug-In . SVG Version: 6.00 Build 0)  -->
<svg version="1.1" id="Layer_1" xmlns="http://www.w3.org/2000/svg" xmlns:xlink="http://www.w3.org/1999/xlink" x="0px" y="0px"
	 viewBox="0 0 633 742.3" style="enable-background:new 0 0 633 742.3;" xml:space="preserve">
<style type="text/css">
	.st0{fill:none;stroke:#231F20;stroke-width:20;stroke-miterlimit:10;}
	.st1{fill:#231F20;stroke:#000000;stroke-miterlimit:10;}
	.st2{fill:#231F20;stroke:#231F20;stroke-miterlimit:10;}
</style>
<circle class="st0" cx="316.5" cy="375.4" r="311.5"/>
<circle class="st1" cx="316.5" cy="371.4" r="211.5"/>
<path class="st2" d="M316,740.1c1.3-45.7,10.5-157.1,87-268.1c63.2-91.8,141.9-139,182.5-159.8h-540
	C61.7,335.4,163.8,425.8,200,464.9c95.9,103.6,112.3,226.8,116,275.5c-0.3-245-0.7-490-1-735"/>
<path class="st2" d="M493,21.9"/>
<path class="st2" d="M586,311.9c-29.3-5.4-110.1-24.5-179-96c-81-84.1-90.3-183.8-92-211c-1,24.7-8.1,137.1-100,224
	c-65.2,61.7-138.8,78-169,83"/>
</svg>
