<svg id="Capa_1" data-name="Capa 1" xmlns="http://www.w3.org/2000/svg" viewBox="0 0 284.93 275.8"><defs><style>.cls-1{fill:#ededed;}</style></defs><title>double_up_arrow</title><path class="cls-1" d="M149,117.05a9,9,0,0,0-13.13,0L2.85,250.1a9,9,0,0,0,0,13.13l14.27,14.28a9,9,0,0,0,13.13,0l112.21-112.2,112.21,112.2a9,9,0,0,0,13.13,0l14.27-14.28a9,9,0,0,0,0-13.13Z" transform="translate(0 -4.56)"/><path class="cls-1" d="M17.12,167.87a9,9,0,0,0,13.13,0L142.46,55.67,254.67,167.88a9,9,0,0,0,13.13,0l14.27-14.28a9,9,0,0,0,0-13.14L149,7.42a9,9,0,0,0-13.13,0l-133,133a9,9,0,0,0,0,13.14Z" transform="translate(0 -4.56)"/></svg>