<svg xmlns="http://www.w3.org/2000/svg" viewBox="0 0 387.79 87.43">
  <defs>
    <style>
      .cls-1 {
        font-size: 12px;
        font-family: Arial-BoldMT, Arial;
        font-weight:700;
      }

      .cls-1,.cls-3{fill:#111111;}.cls-2{letter-spacing:-0.04em;}.cls-4{fill:none;}</style>
  </defs>
  <title>local161-logo-subtext</title>
  <g id="Layer_2" data-name="Layer 2">
    <text class="cls-1" transform="translate(206.23 74.25)">
      <tspan class="cls-2">A</tspan>
      <tspan x="8.22" y="0" xml:space="preserve"> DIVISION OF PUBLIC WORKS</tspan>
    </text>
  </g>
  <g id="Layer_1" data-name="Layer 1">
    <path class="cls-3" d="M574.51,334.07H589V278.75H565.23v11.87h9.28ZM531.42,315a7.38,7.38,0,0,1,7.67-7.33,7.63,7.63,0,0,1,8,7.56c0,4.41-3.68,7.48-8,7.48a7.53,7.53,0,0,1-7.67-7.63Zm5.07-36.25-14.12,20.18c-2.83,4.25-5.21,9.19-5.21,14.8,0,4.27,1.22,9.95,4.83,13.91,3.83,4.93,10.42,7.48,17.57,7.48,12,0,22-8.45,22-21.09S552,295.27,543.7,295.27c-1.08,0-2.84.22-2.91.15.76-1.05,1.53-2,2.22-3l10.28-13.68Zm-42.57,55.32h14.49V278.75H484.64v11.87h9.28Zm-71.28,0h31.3V321.66H437.13V278.75H422.64Zm-27.35-19.21H382.78l6.14-19.3Zm-16.11,11.21H399l2.69,8H417.6l-21.78-55.32h-12.5l-22.48,55.32h15.73ZM346,313.39c-.92,1.94-4.6,9.32-13.66,9.32-9.43,0-15.27-8-15.27-16.4,0-7.85,5.45-16.21,15.19-16.21,7.83,0,12.13,5.57,13.74,9.72h15.19c-1.53-8.74-11.05-22.12-28.85-22.12-18.56,0-29.76,14.51-29.76,28.68,0,14.91,12.12,28.74,29.91,28.74,13.74,0,25.4-8.67,28.7-21.73Zm-93.53-7.14c0-7.78,5.45-16.15,15.51-16.15,10.43,0,15.42,9.2,15.42,16.38s-5,16.23-15.27,16.23c-9.75,0-15.66-7.93-15.66-16.38Zm-14.49.83c0,14.21,12,28,29.84,28,17.65,0,30.07-13.31,30.07-28.71s-12.5-28.71-30-28.71c-15.66,0-29.92,11.21-29.92,29.3Zm-34.37,27h31.29V321.66h-16.8V278.75H203.56Z" transform="translate(-203.56 -277.7)"/><rect class="cls-4" width="385.44" height="57.42"/></g></svg>
