<svg id="Layer_1" data-name="Layer 1" xmlns="http://www.w3.org/2000/svg" viewBox="0 0 72 83.17"><defs><style>.cls-1{fill:#fff;}.cls-2{fill:#ef4523;}</style></defs><title>pw_logo_icon</title><path class="cls-1" d="M108.17,51.71,74.05,37.35,39.92,51.71A3.35,3.35,0,0,0,38,54.53v48.76a3.35,3.35,0,0,0,1.88,2.83l34.15,14.4,34.1-14.4a3.34,3.34,0,0,0,1.87-2.83V54.53A3.34,3.34,0,0,0,108.17,51.71Z" transform="translate(-38.04 -37.35)"/><polygon points="48.77 28.16 48.77 26.35 35.99 31.74 11.32 21.3 11.32 23.11 36 33.56 48.77 28.16"/><polygon points="35.99 58.71 11.32 48.27 11.32 50.08 36 60.53 48.77 55.14 48.77 53.32 35.99 58.71"/><polygon points="53.42 30.69 53.42 28.9 36 36.24 11.32 25.8 11.32 27.61 36 38.05 53.42 30.69"/><polygon points="36 54.22 11.32 43.78 11.32 45.59 36 56.03 53.42 48.68 53.42 46.87 36 54.22"/><polygon points="58.19 33.18 58.19 31.37 36 40.73 11.32 30.29 11.32 32.1 36 42.54 58.19 33.18"/><polygon points="36 49.72 11.32 39.28 11.32 41.09 36 51.53 58.19 42.17 58.19 40.37 36 49.72"/><polygon class="cls-2" points="36 45.23 11.33 34.79 11.32 36.6 35.99 47.04 61.88 36.14 61.88 34.33 36 45.23"/><polygon points="36 72.19 11.32 61.76 11.32 63.57 36 74 36 72.19"/><polygon points="36 67.7 11.32 57.27 11.32 59.08 36 69.51 36 67.7"/><polygon points="36 63.2 11.32 52.78 11.32 54.59 36 65.02 36 63.2"/></svg>